<svg aria-hidden="true" style="position: absolute; width: 0; height: 0; overflow: hidden;" version="1.1" xmlns="http://www.w3.org/2000/svg" xmlns:xlink="http://www.w3.org/1999/xlink">
<defs>
<symbol id="icon-telephone" viewBox="0 0 32 32">
<path d="M6.521 21.271c3.156 3.773 6.956 6.743 11.292 8.845 1.651 0.782 3.859 1.711 6.319 1.87 0.152 0.007 0.298 0.013 0.451 0.013 1.651 0 2.977-0.57 4.058-1.744 0.007-0.007 0.020-0.020 0.027-0.033 0.385-0.464 0.822-0.882 1.28-1.326 0.312-0.298 0.63-0.61 0.935-0.928 1.412-1.472 1.412-3.342-0.013-4.767l-3.985-3.985c-0.676-0.703-1.485-1.074-2.334-1.074s-1.664 0.371-2.361 1.068l-2.374 2.374c-0.219-0.126-0.444-0.239-0.656-0.345-0.265-0.133-0.511-0.259-0.729-0.398-2.162-1.373-4.124-3.163-6.001-5.464-0.948-1.2-1.585-2.208-2.029-3.236 0.623-0.564 1.207-1.154 1.77-1.731 0.199-0.206 0.404-0.411 0.61-0.617 0.716-0.716 1.101-1.545 1.101-2.387s-0.378-1.671-1.101-2.387l-1.976-1.976c-0.232-0.232-0.451-0.458-0.676-0.69-0.438-0.451-0.895-0.915-1.346-1.333-0.683-0.67-1.485-1.021-2.334-1.021-0.842 0-1.651 0.351-2.361 1.028l-2.48 2.48c-0.902 0.902-1.412 1.996-1.518 3.262-0.126 1.585 0.166 3.269 0.922 5.305 1.16 3.15 2.911 6.074 5.51 9.197zM1.707 6.909c0.080-0.882 0.418-1.618 1.054-2.254l2.467-2.467c0.385-0.371 0.809-0.564 1.22-0.564 0.404 0 0.816 0.192 1.194 0.577 0.444 0.411 0.862 0.842 1.313 1.3 0.225 0.232 0.458 0.464 0.69 0.703l1.976 1.976c0.411 0.411 0.623 0.829 0.623 1.24s-0.212 0.829-0.623 1.24c-0.206 0.206-0.411 0.418-0.617 0.623-0.617 0.623-1.194 1.213-1.83 1.777-0.013 0.013-0.020 0.020-0.033 0.033-0.55 0.55-0.464 1.074-0.332 1.472 0.007 0.020 0.013 0.033 0.020 0.053 0.511 1.227 1.22 2.394 2.327 3.786 1.989 2.453 4.085 4.356 6.392 5.822 0.285 0.186 0.59 0.332 0.875 0.477 0.265 0.133 0.511 0.259 0.729 0.398 0.027 0.013 0.046 0.027 0.073 0.040 0.219 0.113 0.431 0.166 0.643 0.166 0.53 0 0.875-0.338 0.988-0.451l2.48-2.48c0.385-0.385 0.802-0.59 1.213-0.59 0.504 0 0.915 0.312 1.174 0.59l3.998 3.992c0.796 0.796 0.789 1.658-0.020 2.5-0.279 0.298-0.57 0.584-0.882 0.882-0.464 0.451-0.948 0.915-1.386 1.439-0.763 0.822-1.671 1.207-2.845 1.207-0.113 0-0.232-0.007-0.345-0.013-2.175-0.139-4.197-0.988-5.716-1.711-4.124-1.996-7.745-4.827-10.748-8.421-2.473-2.977-4.138-5.749-5.238-8.719-0.683-1.823-0.942-3.289-0.835-4.622z"></path>
</symbol>
<symbol id="icon-email" viewBox="0 0 32 32">
<path d="M16 0c-8.836 0-16 7.164-16 16s7.163 16 16 16 16-7.164 16-16c0-8.836-7.164-16-16-16zM16 5.62l9.468 5.904h-18.936l9.468-5.904zM25.586 20.952h-0.001c0 0.947-0.767 1.714-1.714 1.714h-15.742c-0.947 0-1.714-0.767-1.714-1.714v-9.052c0-0.1 0.010-0.198 0.027-0.293l9.046 5.641c0.011 0.007 0.023 0.012 0.034 0.018s0.024 0.013 0.036 0.019c0.064 0.033 0.13 0.060 0.197 0.077 0.007 0.002 0.014 0.003 0.021 0.004 0.074 0.017 0.149 0.028 0.223 0.028h0.001c0.001 0 0.001 0 0.001 0 0.075 0 0.149-0.011 0.223-0.028 0.007-0.002 0.014-0.002 0.021-0.004 0.067-0.017 0.133-0.044 0.197-0.077 0.012-0.006 0.024-0.012 0.036-0.019s0.023-0.011 0.034-0.018l9.046-5.641c0.017 0.096 0.027 0.193 0.027 0.293v9.052z"></path>
</symbol>
<symbol id="icon-telegram_" viewBox="0 0 32 32">
<path d="M32 16c0 8.837-7.163 16-16 16s-16-7.163-16-16c0-8.837 7.163-16 16-16s16 7.163 16 16z"></path>
<path d="M10.831 17.17l1.898 5.254s0.237 0.492 0.491 0.492 4.034-3.932 4.034-3.932l4.203-8.119-10.559 4.949z"></path>
<path d="M13.347 18.517l-0.364 3.873s-0.153 1.187 1.034 0 2.322-2.102 2.322-2.102z"></path>
<path d="M10.865 17.357l-3.905-1.272s-0.467-0.189-0.316-0.619c0.031-0.089 0.093-0.164 0.28-0.293 0.865-0.603 16.014-6.048 16.014-6.048s0.428-0.144 0.68-0.048c0.127 0.040 0.222 0.143 0.251 0.272l0 0.002c0.022 0.088 0.035 0.189 0.035 0.293 0 0.018-0 0.036-0.001 0.054l0-0.003c-0.001 0.1-0.013 0.193-0.023 0.339-0.092 1.489-2.853 12.599-2.853 12.599s-0.165 0.65-0.757 0.672c-0.010 0-0.023 0.001-0.035 0.001-0.294 0-0.56-0.117-0.755-0.306l0 0c-1.161-0.999-5.176-3.697-6.063-4.29-0.040-0.027-0.067-0.070-0.073-0.119l-0-0.001c-0.012-0.063 0.056-0.14 0.056-0.14s6.99-6.213 7.176-6.866c0.014-0.051-0.040-0.075-0.113-0.053-0.464 0.171-8.513 5.253-9.401 5.814-0.037 0.012-0.080 0.018-0.124 0.018-0.026 0-0.051-0.002-0.076-0.007l0.003 0z"></path>
</symbol>
<symbol id="icon-instagram" viewBox="0 0 32 32">
<path d="M16 10.5c-3.038 0-5.5 2.462-5.5 5.5s2.462 5.5 5.5 5.5c3.038 0 5.5-2.462 5.5-5.5v0c-0.004-3.036-2.464-5.496-5.5-5.5h-0zM16 20.5c-2.485 0-4.5-2.015-4.5-4.5s2.015-4.5 4.5-4.5c2.485 0 4.5 2.015 4.5 4.5v0c-0.003 2.484-2.016 4.497-4.5 4.5h-0zM21.5 4h-11c-3.588 0.004-6.496 2.912-6.5 6.5v11c0.004 3.588 2.912 6.496 6.5 6.5h11c3.588-0.004 6.496-2.912 6.5-6.5v-11c-0.004-3.588-2.912-6.496-6.5-6.5h-0zM27 21.5c-0.004 3.036-2.464 5.496-5.5 5.5h-11c-3.036-0.004-5.496-2.464-5.5-5.5v-11c0.004-3.036 2.464-5.496 5.5-5.5h11c3.036 0.004 5.496 2.464 5.5 5.5v0zM23.5 9.5c0 0.552-0.448 1-1 1s-1-0.448-1-1c0-0.552 0.448-1 1-1v0c0.552 0.001 0.999 0.448 1 1v0z"></path>
</symbol>
<symbol id="icon-whatsapp" viewBox="0 0 32 32">
<path d="M23.678 18.388c-0.062-0.030-2.395-1.179-2.81-1.328-0.169-0.061-0.351-0.12-0.543-0.12-0.315 0-0.58 0.157-0.786 0.465-0.233 0.346-0.939 1.171-1.156 1.417-0.028 0.033-0.067 0.071-0.091 0.071-0.021 0-0.382-0.149-0.491-0.196-2.503-1.087-4.402-3.701-4.663-4.142-0.037-0.063-0.039-0.092-0.039-0.092 0.009-0.034 0.093-0.118 0.137-0.161 0.127-0.126 0.265-0.291 0.398-0.452 0.063-0.076 0.126-0.152 0.188-0.224 0.193-0.225 0.279-0.399 0.379-0.602l0.052-0.105c0.244-0.484 0.036-0.892-0.032-1.024-0.055-0.11-1.040-2.488-1.145-2.737-0.252-0.603-0.585-0.883-1.047-0.883-0.043 0 0 0-0.18 0.008-0.219 0.009-1.412 0.166-1.94 0.499-0.559 0.353-1.506 1.477-1.506 3.454 0 1.78 1.129 3.46 1.614 4.099 0.012 0.016 0.034 0.049 0.066 0.096 1.857 2.712 4.172 4.722 6.519 5.659 2.259 0.902 3.329 1.007 3.937 1.007 0 0 0 0 0 0 0.256 0 0.46-0.020 0.641-0.038l0.114-0.011c0.78-0.069 2.496-0.958 2.886-2.042 0.307-0.854 0.388-1.787 0.184-2.125-0.14-0.23-0.381-0.346-0.687-0.493z"></path>
<path d="M16.284 0c-8.667 0-15.717 6.998-15.717 15.599 0 2.782 0.745 5.505 2.155 7.889l-2.7 7.963c-0.050 0.148-0.013 0.313 0.097 0.424 0.079 0.081 0.187 0.125 0.297 0.125 0.042 0 0.084-0.006 0.126-0.020l8.303-2.639c2.272 1.214 4.84 1.855 7.439 1.855 8.666 0 15.716-6.997 15.716-15.598s-7.050-15.599-15.716-15.599zM16.284 27.947c-2.446 0-4.814-0.706-6.851-2.042-0.068-0.045-0.148-0.068-0.228-0.068-0.042 0-0.085 0.006-0.126 0.020l-4.159 1.322 1.343-3.961c0.043-0.128 0.022-0.27-0.058-0.379-1.551-2.119-2.37-4.622-2.37-7.239 0-6.81 5.585-12.35 12.449-12.35s12.448 5.54 12.448 12.35c0 6.809-5.584 12.348-12.448 12.348z"></path>
</symbol>
</defs>
</svg>
